<svg width="24" height="24" viewBox="0 0 24 24" fill="none" xmlns="http://www.w3.org/2000/svg">
<path d="M12.9991 4.00903C12.9991 3.74382 12.8937 3.48946 12.7062 3.30193C12.5187 3.11439 12.2643 3.00903 11.9991 3.00903C11.7339 3.00903 11.4795 3.11439 11.292 3.30193C11.1045 3.48946 10.9991 3.74382 10.9991 4.00903L10.9961 12.012C10.9961 12.2772 11.1015 12.5316 11.289 12.7191C11.4765 12.9067 11.7309 13.012 11.9961 13.012C12.2613 13.012 12.5157 12.9067 12.7032 12.7191C12.8907 12.5316 12.9961 12.2772 12.9961 12.012L12.9991 4.01003V4.00903Z" fill="black"/>
<path d="M4 12.9921C4 10.7821 4.895 8.78208 6.343 7.33508L7.757 8.74908C6.91785 9.58818 6.34636 10.6573 6.11482 11.8212C5.88327 12.9851 6.00207 14.1915 6.45618 15.2879C6.9103 16.3843 7.67933 17.3213 8.66604 17.9807C9.65274 18.64 10.8128 18.9919 11.9995 18.9919C13.1862 18.9919 14.3463 18.64 15.333 17.9807C16.3197 17.3213 17.0887 16.3843 17.5428 15.2879C17.9969 14.1915 18.1157 12.9851 17.8842 11.8212C17.6526 10.6573 17.0812 9.58818 16.242 8.74908L17.657 7.33508C18.5872 8.26537 19.2737 9.41071 19.6556 10.6697C20.0374 11.9286 20.1029 13.2623 19.8463 14.5526C19.5896 15.8429 19.0187 17.05 18.1841 18.067C17.3495 19.0839 16.2769 19.8794 15.0615 20.3828C13.8461 20.8863 12.5252 21.0822 11.216 20.9533C9.90671 20.8243 8.64946 20.3745 7.55558 19.6436C6.46169 18.9128 5.56493 17.9234 4.94474 16.7632C4.32454 15.6029 4.00005 14.3077 4 12.9921V12.9921Z" fill="black"/>
</svg>
