<svg width="25" height="23" viewBox="0 0 25 23" fill="none" xmlns="http://www.w3.org/2000/svg">
<path d="M12.5 0.173828C10.7955 0.173828 9.46378 0.773919 8.50497 1.9741C7.54616 3.17428 7.06676 4.70848 7.06676 6.57669C7.05492 8.89779 7.83617 10.7377 9.41051 12.0964C9.61174 12.2775 9.68277 12.5097 9.62358 12.7927L9.2152 13.6079C9.08499 13.8797 8.89264 14.092 8.63814 14.2448C8.38364 14.3977 7.84801 14.6156 7.03125 14.8987C6.99574 14.91 6.24704 15.1421 4.78516 15.595C3.32327 16.0479 2.54498 16.297 2.45028 16.3423C1.45597 16.7386 0.804924 17.1519 0.497159 17.5821C0.16572 18.2954 0 20.1014 0 22.9999H25C25 20.1014 24.8343 18.2954 24.5028 17.5821C24.1951 17.1519 23.544 16.7386 22.5497 16.3423C22.455 16.297 21.6767 16.0479 20.2148 15.595C18.753 15.1421 18.0043 14.91 17.9688 14.8987C17.152 14.6156 16.6164 14.3977 16.3619 14.2448C16.1074 14.092 15.915 13.8797 15.7848 13.6079L15.3764 12.7927C15.3172 12.5097 15.3883 12.2775 15.5895 12.0964C17.1638 10.7377 17.9451 8.89779 17.9332 6.57669C17.9332 4.70848 17.4538 3.17428 16.495 1.9741C15.5362 0.773919 14.2045 0.173828 12.5 0.173828Z" fill="black"/>
</svg>
